<svg xmlns="http://www.w3.org/2000/svg" xmlns:xlink="http://www.w3.org/1999/xlink" version="1.1" x="0px" y="0px" viewBox="0 0 100 125" style="enable-background:new 0 0 100 100;" xml:space="preserve"><g><path d="M39.6,40.8c0.1,0,0.2,0,0.2,0c0.4,0,0.9-0.3,1-0.8c0.9-3.5,4.4-3.7,4.5-3.8c0.5,0,1-0.5,0.9-1.1c0-0.6-0.5-1-1.1-0.9   c-1.8,0.1-5.4,1.3-6.4,5.3C38.8,40.2,39.1,40.7,39.6,40.8z"/><path d="M59.1,61.3c-0.9,3.5-4.4,3.7-4.5,3.8c-0.5,0-1,0.5-0.9,1.1c0,0.5,0.5,0.9,1,0.9c0,0,0,0,0.1,0c1.8-0.1,5.4-1.3,6.4-5.3   c0.1-0.5-0.2-1.1-0.7-1.2C59.7,60.5,59.2,60.8,59.1,61.3z"/><path d="M59.7,30.1V18.2c0-3.2-2.6-5.9-5.9-5.9h-3.3V11c1.1-0.4,1.9-1.5,1.9-2.7c0-1.6-1.3-2.9-2.9-2.9c-1.6,0-2.9,1.3-2.9,2.9   c0,1.2,0.8,2.3,1.9,2.7v1.4h-3.3c-3.2,0-5.9,2.6-5.9,5.9v11.9c-10.8,0.5-14.6,9.1-14.6,17.3v15.2v2v0.7c0,2.5,2.1,4.6,4.6,4.6h0.5   c2.4,0,4.3-1.8,4.6-4.1c0.6,1,1.3,2,2.1,2.9c0,0.1,0,0.1,0,0.2v16.9c-0.1,0-0.2,0-0.3,0c-3.7,0-6.7,3-6.7,6.6   c0,1.6,1.3,2.8,2.9,2.8h15.1c0.6,0,1-0.4,1-1v-6.6v-0.9V73.2h2.2v13.5v0.9v6.6c0,0.6,0.4,1,1,1h15.1c1.6,0,2.9-1.3,2.9-2.8   c0-3.7-3-6.6-6.7-6.6c-0.1,0-0.2,0-0.3,0V68.7c0,0,0,0,0,0c0.8-0.9,1.5-1.8,2.1-2.8c0.3,2.3,2.2,4.1,4.6,4.1h0.5   c2.5,0,4.6-2.1,4.6-4.6v-0.7v-2V47.4C74.4,39.3,70.5,30.6,59.7,30.1z M49.5,7.4c0.5,0,0.9,0.4,0.9,0.9S50,9.2,49.5,9.2   s-0.9-0.4-0.9-0.9S49,7.4,49.5,7.4z M45.2,14.4h8.6c2.1,0,3.9,1.7,3.9,3.9v11.9C55.9,29.4,54,29,51.9,29h-4.7c-2.1,0-4,0.4-5.8,1.2   v-12C41.3,16.1,43.1,14.4,45.2,14.4z M26.7,51.2h1.5c0.6,0,1-0.4,1-1s-0.4-1-1-1h-1.5v-1.8c0-11.6,6.9-14.5,11.2-15.1   c-3.4,2.7-5.5,6.8-5.5,11.5V46c0,0,0,0,0,0.1v16.6h-5.7V51.2z M32.4,65.2c0,1.4-1.2,2.6-2.6,2.6h-0.5c-1.4,0-2.6-1.2-2.6-2.6v-0.7   h5.7V65.2z M31.4,92.4c0-2.6,2.1-4.6,4.7-4.6c1.8,0,3.5,0.7,4.7,2c0.2,0.2,0.5,0.3,0.7,0.3c0.3,0,0.5-0.1,0.7-0.3   c0.4-0.4,0.4-1,0-1.4c-1.1-1.1-2.4-1.9-3.8-2.3V70.4c2.2,1.7,5,2.7,7.9,2.8c0,0,0,0,0,0v12.5h-2.1c-0.6,0-1,0.4-1,1s0.4,1,1,1h2.1   v5.5H32.3C31.8,93.2,31.4,92.9,31.4,92.4z M47.2,71.2c-7,0-12.7-5.7-12.7-12.7V43.7c0-7,5.7-12.7,12.7-12.7h4.7   c7,0,12.7,5.7,12.7,12.7V46c0,0,0,0,0,0v12.7c-0.1,6.9-5.8,12.6-12.7,12.6H47.2z M56.7,88.4c-0.4,0.4-0.4,1,0,1.4   c0.2,0.2,0.4,0.3,0.7,0.3c0.3,0,0.5-0.1,0.7-0.3c1.2-1.3,2.9-2,4.7-2c2.6,0,4.7,2.1,4.7,4.6c0,0.5-0.4,0.8-0.9,0.8H52.6v-5.5h2.1   c0.6,0,1-0.4,1-1s-0.4-1-1-1h-2.1V73.2c0,0,0,0,0,0c3-0.1,5.7-1.2,7.9-2.8v15.7C59.1,86.5,57.8,87.3,56.7,88.4z M72.4,65.2   c0,1.4-1.2,2.6-2.6,2.6h-0.5c-1.4,0-2.6-1.2-2.6-2.6v-0.7h5.7V65.2z M66.6,62.6v-3.9c0-0.1,0-0.1,0-0.2V43.7   c0-4.6-2.1-8.8-5.5-11.5c4.3,0.7,11.2,3.6,11.2,15.1v1.8h-1.5c-0.6,0-1,0.4-1,1s0.4,1,1,1h1.5v11.4H66.6z"/><path d="M49.5,27c2.9,0,5.3-2.4,5.3-5.3c0-2.9-2.4-5.3-5.3-5.3s-5.3,2.4-5.3,5.3C44.2,24.6,46.6,27,49.5,27z M49.5,25   c-1.8,0-3.3-1.5-3.3-3.3c0-0.1,0-0.1,0-0.2h2c0,0.1,0,0.1,0,0.2c0,0.7,0.6,1.3,1.3,1.3c0.7,0,1.3-0.6,1.3-1.3c0-0.1,0-0.1,0-0.2h2   c0,0.1,0,0.1,0,0.2C52.8,23.5,51.3,25,49.5,25z M49.5,18.4c1,0,1.9,0.4,2.5,1.1H47C47.7,18.9,48.5,18.4,49.5,18.4z"/><path d="M60.6,50.6c0-0.1,0-0.2,0-0.4c0,0,0-0.1,0-0.1c0-0.1,0-0.1,0-0.2c-0.3-5.8-5.2-10.5-11.1-10.5c-6.1,0-11.1,5-11.1,11.1   s5,11.1,11.1,11.1C55.6,61.7,60.6,56.7,60.6,50.6z M49.5,41.5c4.5,0,8.3,3.3,9,7.6h-4.7c-0.3,0-0.5,0.1-0.7,0.3l-2.9,2.8l-4.1-5   c-0.2-0.2-0.4-0.3-0.7-0.4c-0.3,0-0.6,0.1-0.8,0.3l-2.4,2.4h-1.7C41,45.1,44.8,41.5,49.5,41.5z M49.5,59.7c-4.7,0-8.5-3.5-9-8.1   h2.1c0.3,0,0.5-0.1,0.7-0.3l1.9-1.9l4.1,5c0.2,0.2,0.4,0.3,0.7,0.4c0,0,0,0,0.1,0c0.3,0,0.5-0.1,0.7-0.3l3.4-3.3h4.4   C58.3,55.9,54.3,59.7,49.5,59.7z"/></g></svg>