<svg xmlns="http://www.w3.org/2000/svg" xmlns:xlink="http://www.w3.org/1999/xlink" version="1.1" x="0px" y="0px" viewBox="0 0 100 125" style="enable-background:new 0 0 100 100;" xml:space="preserve"><g><path d="M46,28.7c0.5-0.1,0.9-0.7,0.7-1.2c-0.1-0.5-0.7-0.9-1.2-0.7c-0.2,0.1-5.5,1.5-7.2,6.5c-0.2,0.5,0.1,1.1,0.6,1.3   c0.1,0,0.2,0.1,0.3,0.1c0.4,0,0.8-0.3,0.9-0.7C41.6,29.9,46,28.7,46,28.7z"/><path d="M56.8,61.5c0.1,0,0.3,0,0.4-0.1c1.7-0.7,2.7-1.6,3.4-3.1c0.2-0.5,0-1.1-0.5-1.3c-0.5-0.2-1.1,0-1.3,0.5   c-0.4,1-1.1,1.5-2.3,2c-0.5,0.2-0.8,0.8-0.5,1.3C56,61.3,56.4,61.5,56.8,61.5z"/><path d="M60.2,23.9v-7.6c0-5.3-4-9.6-9.2-10.1V4c0-0.6-0.4-1-1-1s-1,0.4-1,1v2.2c-5.2,0.5-9.2,4.9-9.2,10.1v7.6   C29.1,24.4,25.2,33,25.2,41.1v15.2v2V59c0,2.5,2.1,4.6,4.6,4.6h0.5c2.4,0,4.3-1.8,4.6-4.1c0.6,1,1.3,2,2.1,2.9c0,0.1,0,0.1,0,0.2   v12.8c0,0,0,0,0,0c-0.2,0.6-0.3,1.2-0.3,1.8c0,0.6,0.1,1.3,0.3,1.8c0,0,0,0.1,0,0.1v8.3c-0.1,0-0.2,0-0.3,0c-3.7,0-6.7,3-6.7,6.6   c0,1.6,1.3,2.8,2.9,2.8h15.1c0.6,0,1-0.4,1-1v-6.6v-0.9v-8.6c0.4-0.8,0.6-1.7,0.6-2.6c0-0.9-0.2-1.8-0.6-2.6c0,0,0,0,0,0V67h2.2   v8.2c0,0,0,0,0,0c-0.2,0.7-0.4,1.4-0.4,2.1c0,0.7,0.1,1.4,0.4,2.1v9.1v0.9V96c0,0.6,0.4,1,1,1h15.1c1.6,0,2.9-1.3,2.9-2.8   c0-3.7-3-6.6-6.7-6.6c-0.1,0-0.2,0-0.3,0v-7.7c0,0,0-0.1,0-0.1c0.3-0.8,0.5-1.6,0.5-2.5c0-0.9-0.2-1.7-0.5-2.4c0,0,0,0,0,0V62.4   c0,0,0,0,0,0c0.8-0.9,1.5-1.8,2.1-2.8c0.3,2.3,2.2,4.1,4.6,4.1h0.5c2.5,0,4.6-2.1,4.6-4.6v-0.7v-2V41.1   C74.8,33,70.9,24.4,60.2,23.9z M27.2,41.1c0-0.5,0-1,0-1.5c1-0.2,3.3-0.6,5.7,0.1c0,0,0,0,0,0v5.8c-2.3-0.5-4.5-0.3-5.7,0V41.1z    M34.9,52.2V37.5c0-7,5.7-12.7,12.7-12.7h4.7c7,0,12.7,5.7,12.7,12.7v2.2c0,0,0,0,0,0v12.7c0,0.2,0,0.4,0,0.6H34.9   C34.9,52.8,34.9,52.5,34.9,52.2z M58.2,16.3v2.6c-7.3-1.9-14.3-0.5-16.4,0v-2.6c0-0.4,0-0.8,0.1-1.1c1.1-0.3,8.7-2.1,16.2,0   C58.2,15.6,58.2,15.9,58.2,16.3z M41.8,21c0.7-0.2,8.6-2.2,16.4,0v3c-1.8-0.8-3.8-1.2-5.8-1.2h-4.7c-2.1,0-4,0.4-5.8,1.2V21z    M67.1,39.7c0.8-0.2,3.2-0.7,5.7-0.1c0,0.5,0,1,0,1.5v4.4c-2.4-0.5-4.6-0.2-5.7,0.1V39.7z M72.6,37.6c-2.3-0.4-4.3-0.1-5.5,0.1   v-0.2c0-4.6-2.1-8.8-5.5-11.5C65.4,26.6,71.3,29,72.6,37.6z M50,8.1c3.3,0,6.2,2,7.5,4.9c-6.3-1.5-12.4-0.5-15,0   C43.8,10.1,46.7,8.1,50,8.1z M38.4,26c-3.4,2.7-5.5,6.8-5.5,11.5v0.2c-2.2-0.5-4.2-0.3-5.5-0.1C28.7,28.9,34.6,26.6,38.4,26z    M27.2,47.6c1-0.2,3.3-0.7,5.7,0v8.7h-5.7V47.6z M32.9,59c0,1.4-1.2,2.6-2.6,2.6h-0.5c-1.4,0-2.6-1.2-2.6-2.6v-0.7h5.7V59z    M38.7,77.3c0-2.4,2-4.4,4.4-4.4s4.4,2,4.4,4.4s-2,4.4-4.4,4.4S38.7,79.7,38.7,77.3z M46.9,72.2c-1.1-0.8-2.4-1.3-3.8-1.3   c-1.6,0-3,0.6-4.1,1.5v-8.3c2.2,1.7,5,2.7,7.9,2.8c0,0,0,0,0,0V72.2z M31.9,94.2c0-2.6,2.1-4.6,4.7-4.6c1.8,0,3.5,0.7,4.7,2   c0.2,0.2,0.5,0.3,0.7,0.3c0.3,0,0.5-0.1,0.7-0.3c0.4-0.4,0.4-1,0-1.4c-1.1-1.1-2.4-1.9-3.8-2.3v-5.7c1.1,0.9,2.6,1.5,4.1,1.5   c1.4,0,2.7-0.5,3.8-1.3v5.2h-2.1c-0.6,0-1,0.4-1,1s0.4,1,1,1h2.1V95H32.8C32.3,95,31.9,94.6,31.9,94.2z M47.7,65   c-6.1,0-11.1-4.2-12.4-9.9h29.6c-1.3,5.7-6.4,9.9-12.4,9.9H47.7z M52.8,77.3c0-2.4,2-4.4,4.4-4.4s4.4,2,4.4,4.4s-2,4.4-4.4,4.4   S52.8,79.7,52.8,77.3z M57.1,70.9c-1.5,0-2.9,0.5-4,1.4V67c0,0,0,0,0,0c3-0.1,5.7-1.2,7.9-2.8v8.1C60,71.4,58.6,70.9,57.1,70.9z    M57.2,90.1c-0.4,0.4-0.4,1,0,1.4c0.2,0.2,0.4,0.3,0.7,0.3c0.3,0,0.5-0.1,0.7-0.3c1.3-1.3,2.9-2,4.7-2c2.6,0,4.7,2.1,4.7,4.6   c0,0.5-0.4,0.8-0.9,0.8H53.1v-5.5h2.1c0.6,0,1-0.4,1-1s-0.4-1-1-1h-2.1v-5.3c1.1,0.9,2.5,1.4,4,1.4c1.5,0,2.8-0.5,3.9-1.3v5.5   C59.6,88.2,58.3,89,57.2,90.1z M72.8,59c0,1.4-1.2,2.6-2.6,2.6h-0.5c-1.4,0-2.6-1.2-2.6-2.6v-0.7h5.7V59z M67.1,56.3v-3.9   c0-0.1,0-0.1,0-0.2v-4.6c0.8-0.2,3.2-0.7,5.7-0.1v8.8H67.1z"/><path d="M49.9,31.4c-4.5,0-8.2,3.7-8.2,8.2s3.7,8.2,8.2,8.2s8.2-3.7,8.2-8.2S54.5,31.4,49.9,31.4z M49.9,45.8   c-3.4,0-6.2-2.8-6.2-6.2s2.8-6.2,6.2-6.2s6.2,2.8,6.2,6.2S53.4,45.8,49.9,45.8z"/><path d="M52.6,35.1c-0.4-0.4-1-0.4-1.4,0l-3.6,3.6c-0.3,0.3-0.4,0.7-0.2,1.1c0.2,0.4,0.5,0.6,0.9,0.6h1.2l-2.2,2.2   c-0.4,0.4-0.4,1,0,1.4c0.2,0.2,0.5,0.3,0.7,0.3s0.5-0.1,0.7-0.3l3.9-3.9c0.3-0.3,0.4-0.7,0.2-1.1c-0.2-0.4-0.5-0.6-0.9-0.6h-1.2   l1.9-1.9C53,36.1,53,35.5,52.6,35.1z"/></g></svg>