<svg style="display: none;"><symbol viewBox="0 0 100 125" id="shape-bolt"><title>bolt</title><polygon points="45.335,13.72 62.761,13.72 51.851,35.237 68.064,35.237 32,86 46.419,48.116 32,48.116 "/></symbol><symbol viewBox="0 0 100 125" id="shape-noun_469519_cc"><title>noun_469519_cc</title><g><path d="M39.6,40.8c0.1,0,0.2,0,0.2,0c0.4,0,0.9-0.3,1-0.8c0.9-3.5,4.4-3.7,4.5-3.8c0.5,0,1-0.5,0.9-1.1c0-0.6-0.5-1-1.1-0.9   c-1.8,0.1-5.4,1.3-6.4,5.3C38.8,40.2,39.1,40.7,39.6,40.8z"/><path d="M59.1,61.3c-0.9,3.5-4.4,3.7-4.5,3.8c-0.5,0-1,0.5-0.9,1.1c0,0.5,0.5,0.9,1,0.9c0,0,0,0,0.1,0c1.8-0.1,5.4-1.3,6.4-5.3   c0.1-0.5-0.2-1.1-0.7-1.2C59.7,60.5,59.2,60.8,59.1,61.3z"/><path d="M59.7,30.1V18.2c0-3.2-2.6-5.9-5.9-5.9h-3.3V11c1.1-0.4,1.9-1.5,1.9-2.7c0-1.6-1.3-2.9-2.9-2.9c-1.6,0-2.9,1.3-2.9,2.9   c0,1.2,0.8,2.3,1.9,2.7v1.4h-3.3c-3.2,0-5.9,2.6-5.9,5.9v11.9c-10.8,0.5-14.6,9.1-14.6,17.3v15.2v2v0.7c0,2.5,2.1,4.6,4.6,4.6h0.5   c2.4,0,4.3-1.8,4.6-4.1c0.6,1,1.3,2,2.1,2.9c0,0.1,0,0.1,0,0.2v16.9c-0.1,0-0.2,0-0.3,0c-3.7,0-6.7,3-6.7,6.6   c0,1.6,1.3,2.8,2.9,2.8h15.1c0.6,0,1-0.4,1-1v-6.6v-0.9V73.2h2.2v13.5v0.9v6.6c0,0.6,0.4,1,1,1h15.1c1.6,0,2.9-1.3,2.9-2.8   c0-3.7-3-6.6-6.7-6.6c-0.1,0-0.2,0-0.3,0V68.7c0,0,0,0,0,0c0.8-0.9,1.5-1.8,2.1-2.8c0.3,2.3,2.2,4.1,4.6,4.1h0.5   c2.5,0,4.6-2.1,4.6-4.6v-0.7v-2V47.4C74.4,39.3,70.5,30.6,59.7,30.1z M49.5,7.4c0.5,0,0.9,0.4,0.9,0.9S50,9.2,49.5,9.2   s-0.9-0.4-0.9-0.9S49,7.4,49.5,7.4z M45.2,14.4h8.6c2.1,0,3.9,1.7,3.9,3.9v11.9C55.9,29.4,54,29,51.9,29h-4.7c-2.1,0-4,0.4-5.8,1.2   v-12C41.3,16.1,43.1,14.4,45.2,14.4z M26.7,51.2h1.5c0.6,0,1-0.4,1-1s-0.4-1-1-1h-1.5v-1.8c0-11.6,6.9-14.5,11.2-15.1   c-3.4,2.7-5.5,6.8-5.5,11.5V46c0,0,0,0,0,0.1v16.6h-5.7V51.2z M32.4,65.2c0,1.4-1.2,2.6-2.6,2.6h-0.5c-1.4,0-2.6-1.2-2.6-2.6v-0.7   h5.7V65.2z M31.4,92.4c0-2.6,2.1-4.6,4.7-4.6c1.8,0,3.5,0.7,4.7,2c0.2,0.2,0.5,0.3,0.7,0.3c0.3,0,0.5-0.1,0.7-0.3   c0.4-0.4,0.4-1,0-1.4c-1.1-1.1-2.4-1.9-3.8-2.3V70.4c2.2,1.7,5,2.7,7.9,2.8c0,0,0,0,0,0v12.5h-2.1c-0.6,0-1,0.4-1,1s0.4,1,1,1h2.1   v5.5H32.3C31.8,93.2,31.4,92.9,31.4,92.4z M47.2,71.2c-7,0-12.7-5.7-12.7-12.7V43.7c0-7,5.7-12.7,12.7-12.7h4.7   c7,0,12.7,5.7,12.7,12.7V46c0,0,0,0,0,0v12.7c-0.1,6.9-5.8,12.6-12.7,12.6H47.2z M56.7,88.4c-0.4,0.4-0.4,1,0,1.4   c0.2,0.2,0.4,0.3,0.7,0.3c0.3,0,0.5-0.1,0.7-0.3c1.2-1.3,2.9-2,4.7-2c2.6,0,4.7,2.1,4.7,4.6c0,0.5-0.4,0.8-0.9,0.8H52.6v-5.5h2.1   c0.6,0,1-0.4,1-1s-0.4-1-1-1h-2.1V73.2c0,0,0,0,0,0c3-0.1,5.7-1.2,7.9-2.8v15.7C59.1,86.5,57.8,87.3,56.7,88.4z M72.4,65.2   c0,1.4-1.2,2.6-2.6,2.6h-0.5c-1.4,0-2.6-1.2-2.6-2.6v-0.7h5.7V65.2z M66.6,62.6v-3.9c0-0.1,0-0.1,0-0.2V43.7   c0-4.6-2.1-8.8-5.5-11.5c4.3,0.7,11.2,3.6,11.2,15.1v1.8h-1.5c-0.6,0-1,0.4-1,1s0.4,1,1,1h1.5v11.4H66.6z"/><path d="M49.5,27c2.9,0,5.3-2.4,5.3-5.3c0-2.9-2.4-5.3-5.3-5.3s-5.3,2.4-5.3,5.3C44.2,24.6,46.6,27,49.5,27z M49.5,25   c-1.8,0-3.3-1.5-3.3-3.3c0-0.1,0-0.1,0-0.2h2c0,0.1,0,0.1,0,0.2c0,0.7,0.6,1.3,1.3,1.3c0.7,0,1.3-0.6,1.3-1.3c0-0.1,0-0.1,0-0.2h2   c0,0.1,0,0.1,0,0.2C52.8,23.5,51.3,25,49.5,25z M49.5,18.4c1,0,1.9,0.4,2.5,1.1H47C47.7,18.9,48.5,18.4,49.5,18.4z"/><path d="M60.6,50.6c0-0.1,0-0.2,0-0.4c0,0,0-0.1,0-0.1c0-0.1,0-0.1,0-0.2c-0.3-5.8-5.2-10.5-11.1-10.5c-6.1,0-11.1,5-11.1,11.1   s5,11.1,11.1,11.1C55.6,61.7,60.6,56.7,60.6,50.6z M49.5,41.5c4.5,0,8.3,3.3,9,7.6h-4.7c-0.3,0-0.5,0.1-0.7,0.3l-2.9,2.8l-4.1-5   c-0.2-0.2-0.4-0.3-0.7-0.4c-0.3,0-0.6,0.1-0.8,0.3l-2.4,2.4h-1.7C41,45.1,44.8,41.5,49.5,41.5z M49.5,59.7c-4.7,0-8.5-3.5-9-8.1   h2.1c0.3,0,0.5-0.1,0.7-0.3l1.9-1.9l4.1,5c0.2,0.2,0.4,0.3,0.7,0.4c0,0,0,0,0.1,0c0.3,0,0.5-0.1,0.7-0.3l3.4-3.3h4.4   C58.3,55.9,54.3,59.7,49.5,59.7z"/></g></symbol><symbol viewBox="0 0 100 125" id="shape-noun_470824_cc"><title>noun_470824_cc</title><g><path d="M46,28.7c0.5-0.1,0.9-0.7,0.7-1.2c-0.1-0.5-0.7-0.9-1.2-0.7c-0.2,0.1-5.5,1.5-7.2,6.5c-0.2,0.5,0.1,1.1,0.6,1.3   c0.1,0,0.2,0.1,0.3,0.1c0.4,0,0.8-0.3,0.9-0.7C41.6,29.9,46,28.7,46,28.7z"/><path d="M56.8,61.5c0.1,0,0.3,0,0.4-0.1c1.7-0.7,2.7-1.6,3.4-3.1c0.2-0.5,0-1.1-0.5-1.3c-0.5-0.2-1.1,0-1.3,0.5   c-0.4,1-1.1,1.5-2.3,2c-0.5,0.2-0.8,0.8-0.5,1.3C56,61.3,56.4,61.5,56.8,61.5z"/><path d="M60.2,23.9v-7.6c0-5.3-4-9.6-9.2-10.1V4c0-0.6-0.4-1-1-1s-1,0.4-1,1v2.2c-5.2,0.5-9.2,4.9-9.2,10.1v7.6   C29.1,24.4,25.2,33,25.2,41.1v15.2v2V59c0,2.5,2.1,4.6,4.6,4.6h0.5c2.4,0,4.3-1.8,4.6-4.1c0.6,1,1.3,2,2.1,2.9c0,0.1,0,0.1,0,0.2   v12.8c0,0,0,0,0,0c-0.2,0.6-0.3,1.2-0.3,1.8c0,0.6,0.1,1.3,0.3,1.8c0,0,0,0.1,0,0.1v8.3c-0.1,0-0.2,0-0.3,0c-3.7,0-6.7,3-6.7,6.6   c0,1.6,1.3,2.8,2.9,2.8h15.1c0.6,0,1-0.4,1-1v-6.6v-0.9v-8.6c0.4-0.8,0.6-1.7,0.6-2.6c0-0.9-0.2-1.8-0.6-2.6c0,0,0,0,0,0V67h2.2   v8.2c0,0,0,0,0,0c-0.2,0.7-0.4,1.4-0.4,2.1c0,0.7,0.1,1.4,0.4,2.1v9.1v0.9V96c0,0.6,0.4,1,1,1h15.1c1.6,0,2.9-1.3,2.9-2.8   c0-3.7-3-6.6-6.7-6.6c-0.1,0-0.2,0-0.3,0v-7.7c0,0,0-0.1,0-0.1c0.3-0.8,0.5-1.6,0.5-2.5c0-0.9-0.2-1.7-0.5-2.4c0,0,0,0,0,0V62.4   c0,0,0,0,0,0c0.8-0.9,1.5-1.8,2.1-2.8c0.3,2.3,2.2,4.1,4.6,4.1h0.5c2.5,0,4.6-2.1,4.6-4.6v-0.7v-2V41.1   C74.8,33,70.9,24.4,60.2,23.9z M27.2,41.1c0-0.5,0-1,0-1.5c1-0.2,3.3-0.6,5.7,0.1c0,0,0,0,0,0v5.8c-2.3-0.5-4.5-0.3-5.7,0V41.1z    M34.9,52.2V37.5c0-7,5.7-12.7,12.7-12.7h4.7c7,0,12.7,5.7,12.7,12.7v2.2c0,0,0,0,0,0v12.7c0,0.2,0,0.4,0,0.6H34.9   C34.9,52.8,34.9,52.5,34.9,52.2z M58.2,16.3v2.6c-7.3-1.9-14.3-0.5-16.4,0v-2.6c0-0.4,0-0.8,0.1-1.1c1.1-0.3,8.7-2.1,16.2,0   C58.2,15.6,58.2,15.9,58.2,16.3z M41.8,21c0.7-0.2,8.6-2.2,16.4,0v3c-1.8-0.8-3.8-1.2-5.8-1.2h-4.7c-2.1,0-4,0.4-5.8,1.2V21z    M67.1,39.7c0.8-0.2,3.2-0.7,5.7-0.1c0,0.5,0,1,0,1.5v4.4c-2.4-0.5-4.6-0.2-5.7,0.1V39.7z M72.6,37.6c-2.3-0.4-4.3-0.1-5.5,0.1   v-0.2c0-4.6-2.1-8.8-5.5-11.5C65.4,26.6,71.3,29,72.6,37.6z M50,8.1c3.3,0,6.2,2,7.5,4.9c-6.3-1.5-12.4-0.5-15,0   C43.8,10.1,46.7,8.1,50,8.1z M38.4,26c-3.4,2.7-5.5,6.8-5.5,11.5v0.2c-2.2-0.5-4.2-0.3-5.5-0.1C28.7,28.9,34.6,26.6,38.4,26z    M27.2,47.6c1-0.2,3.3-0.7,5.7,0v8.7h-5.7V47.6z M32.9,59c0,1.4-1.2,2.6-2.6,2.6h-0.5c-1.4,0-2.6-1.2-2.6-2.6v-0.7h5.7V59z    M38.7,77.3c0-2.4,2-4.4,4.4-4.4s4.4,2,4.4,4.4s-2,4.4-4.4,4.4S38.7,79.7,38.7,77.3z M46.9,72.2c-1.1-0.8-2.4-1.3-3.8-1.3   c-1.6,0-3,0.6-4.1,1.5v-8.3c2.2,1.7,5,2.7,7.9,2.8c0,0,0,0,0,0V72.2z M31.9,94.2c0-2.6,2.1-4.6,4.7-4.6c1.8,0,3.5,0.7,4.7,2   c0.2,0.2,0.5,0.3,0.7,0.3c0.3,0,0.5-0.1,0.7-0.3c0.4-0.4,0.4-1,0-1.4c-1.1-1.1-2.4-1.9-3.8-2.3v-5.7c1.1,0.9,2.6,1.5,4.1,1.5   c1.4,0,2.7-0.5,3.8-1.3v5.2h-2.1c-0.6,0-1,0.4-1,1s0.4,1,1,1h2.1V95H32.8C32.3,95,31.9,94.6,31.9,94.2z M47.7,65   c-6.1,0-11.1-4.2-12.4-9.9h29.6c-1.3,5.7-6.4,9.9-12.4,9.9H47.7z M52.8,77.3c0-2.4,2-4.4,4.4-4.4s4.4,2,4.4,4.4s-2,4.4-4.4,4.4   S52.8,79.7,52.8,77.3z M57.1,70.9c-1.5,0-2.9,0.5-4,1.4V67c0,0,0,0,0,0c3-0.1,5.7-1.2,7.9-2.8v8.1C60,71.4,58.6,70.9,57.1,70.9z    M57.2,90.1c-0.4,0.4-0.4,1,0,1.4c0.2,0.2,0.4,0.3,0.7,0.3c0.3,0,0.5-0.1,0.7-0.3c1.3-1.3,2.9-2,4.7-2c2.6,0,4.7,2.1,4.7,4.6   c0,0.5-0.4,0.8-0.9,0.8H53.1v-5.5h2.1c0.6,0,1-0.4,1-1s-0.4-1-1-1h-2.1v-5.3c1.1,0.9,2.5,1.4,4,1.4c1.5,0,2.8-0.5,3.9-1.3v5.5   C59.6,88.2,58.3,89,57.2,90.1z M72.8,59c0,1.4-1.2,2.6-2.6,2.6h-0.5c-1.4,0-2.6-1.2-2.6-2.6v-0.7h5.7V59z M67.1,56.3v-3.9   c0-0.1,0-0.1,0-0.2v-4.6c0.8-0.2,3.2-0.7,5.7-0.1v8.8H67.1z"/><path d="M49.9,31.4c-4.5,0-8.2,3.7-8.2,8.2s3.7,8.2,8.2,8.2s8.2-3.7,8.2-8.2S54.5,31.4,49.9,31.4z M49.9,45.8   c-3.4,0-6.2-2.8-6.2-6.2s2.8-6.2,6.2-6.2s6.2,2.8,6.2,6.2S53.4,45.8,49.9,45.8z"/><path d="M52.6,35.1c-0.4-0.4-1-0.4-1.4,0l-3.6,3.6c-0.3,0.3-0.4,0.7-0.2,1.1c0.2,0.4,0.5,0.6,0.9,0.6h1.2l-2.2,2.2   c-0.4,0.4-0.4,1,0,1.4c0.2,0.2,0.5,0.3,0.7,0.3s0.5-0.1,0.7-0.3l3.9-3.9c0.3-0.3,0.4-0.7,0.2-1.1c-0.2-0.4-0.5-0.6-0.9-0.6h-1.2   l1.9-1.9C53,36.1,53,35.5,52.6,35.1z"/></g></symbol><symbol viewBox="0 0 90 112.5" id="shape-paper"><title>paper</title><path d="M69.806,20.336c-1.106-0.189-2.15-0.168-3.128,0.064c-0.04-1.452-0.108-2.907-0.208-4.362v-0.016  c-0.182-2.154-1.068-3.939-2.661-5.357c-1.641-1.463-3.55-2.122-5.728-1.972c-1.719,0.115-3.215,0.708-4.49,1.779  c-0.113-0.813-0.228-1.365-0.337-1.652l-0.015-0.032c-0.849-2.272-2.313-4.01-4.396-5.213l-0.016-0.015  c-2.252-1.323-4.696-1.414-7.33-0.273h0.017c-2.679,1.063-4.303,3.367-4.875,6.913v-0.032c-0.099,0.519-0.172,1.09-0.225,1.716  c-0.236-0.152-0.489-0.291-0.753-0.417l-0.033-0.016c-1.94-0.879-3.922-0.981-5.95-0.305c-0.012,0.006-0.029,0.011-0.047,0.016  c-2.021,0.734-3.513,2.028-4.474,3.881v-0.016c-0.919,1.615-1.245,3.877-0.979,6.783h-0.016c0.172,2.112,2.09,10.863,5.757,26.255  c-0.075-0.043-0.15-0.085-0.224-0.128h0.016c-1.881-1.11-3.949-1.96-6.207-2.551l0.016,0.016c-2.521-0.703-5.209-0.457-8.066,0.738  c-3.391,1.386-4.846,3.984-4.363,7.794v0.018c0.361,3.669,2.793,6.043,7.297,7.119c2.872,0.679,4.775,1.353,5.709,2.021l0.017,0.016  c0.843,0.742,1.741,1.955,2.694,3.641c0.005,0.012,0.009,0.022,0.016,0.032c1.314,2.41,3.313,4.287,5.998,5.629h-0.016  c0.792,0.407,1.604,0.765,2.438,1.075c-0.867,1.336-1.257,2.501-1.171,3.496c-0.13,3.317,1.831,5.968,5.885,7.955l-0.016-0.017  c2.762,1.398,5.825,2.308,9.19,2.727h0.017c3.398,0.408,6.81,0.033,10.231-1.122l0.017-0.017c4.034-1.293,6.138-4.545,6.301-9.75  c0.012-0.277-0.026-0.532-0.111-0.771c7.77-4.415,9.989-13.257,6.657-26.527c2.176-6.684,3.603-13.575,4.281-20.673v-0.015  c0.193-2.01-0.369-3.838-1.685-5.485C73.517,21.639,71.839,20.655,69.806,20.336z M67.834,48.659  c-0.138,0.42-0.149,0.843-0.034,1.267c3.413,13.039,0.593,20.988-8.467,23.848c-0.584,0.172-1.022,0.524-1.315,1.059  c-0.292,0.538-0.351,1.1-0.177,1.685c0.17,0.583,0.523,1.021,1.06,1.314s1.099,0.352,1.683,0.178  c0.199-0.056,0.396-0.115,0.594-0.178c-0.332,2.283-1.405,3.786-3.224,4.508l0.017-0.017c-2.773,0.938-5.537,1.249-8.292,0.931  c-2.835-0.351-5.419-1.109-7.746-2.277l-0.017-0.017c-2.149-1.052-3.289-2.377-3.417-3.978c0.111-0.569,0.56-1.328,1.349-2.277  c0.325,0.056,0.651,0.104,0.977,0.145c0.605,0.075,1.15-0.075,1.637-0.449c0.481-0.377,0.759-0.869,0.834-1.476  c0.077-0.605-0.074-1.15-0.449-1.635c-0.377-0.482-0.869-0.76-1.475-0.835c-2.346-0.288-4.527-0.95-6.543-1.988h-0.017  c-1.837-0.918-3.212-2.196-4.122-3.835l-0.015-0.03c-1.302-2.308-2.554-3.942-3.753-4.908l-0.016-0.017  c-1.168-1.034-3.666-2.001-7.491-2.902c-2.291-0.547-3.602-1.675-3.929-3.384v-0.016c-0.197-1.527,0.358-2.58,1.669-3.16  c1.848-0.771,3.585-0.955,5.213-0.545l0.015,0.017c1.848,0.479,3.543,1.168,5.084,2.068h0.016c1.898,1.107,3.576,1.787,5.036,2.037  c0.044,0.014,0.086,0.024,0.127,0.032c0.083,0.015,0.17,0.025,0.257,0.031c0.706,0.051,2.027,0.028,3.961-0.063h0.032  c1.522-0.056,3.43,0.414,5.726,1.411v0.016c2.246,1.016,4.067,2.957,5.47,5.822c0.268,0.547,0.689,0.921,1.267,1.123  c0.573,0.202,1.136,0.17,1.683-0.096c0.55-0.27,0.924-0.692,1.124-1.269c0.201-0.571,0.169-1.133-0.097-1.683  c-1.938-3.978-4.496-6.635-7.683-7.972v0.017c-3.077-1.349-5.649-1.947-7.713-1.797h-0.032c-0.711,0.033-1.327,0.055-1.844,0.064  c-3.945-16.499-6.014-25.834-6.207-28.002h-0.017c-0.161-1.841,0.004-3.279,0.498-4.315v-0.016c0.442-0.828,1.114-1.41,2.02-1.748  c0.017-0.005,0.032-0.011,0.048-0.016c0.896-0.287,1.773-0.238,2.631,0.144c0.011,0.006,0.022,0.011,0.033,0.017  c0.787,0.382,1.331,0.98,1.636,1.795l-0.016-0.015c0.48,1.325,0.918,2.662,1.314,4.009c0.01,0.041,0.021,0.083,0.033,0.128  c0.074,0.209,0.249,0.792,0.528,1.749c0.008,0.047,0.019,0.096,0.033,0.144c1.35,4.628,2.606,10.803,3.769,18.523  c0.089,0.608,0.377,1.094,0.866,1.46c0.496,0.361,1.046,0.495,1.652,0.401c0.6-0.088,1.082-0.378,1.444-0.866  c0.36-0.491,0.493-1.037,0.4-1.636c-1.184-7.938-2.466-14.295-3.849-19.068c-0.814-5.014-1.019-8.741-0.609-11.179v-0.032  c0.283-1.76,1.031-2.941,2.245-3.545h0.017c1.215-0.526,2.342-0.511,3.384,0.048L46.63,7.394c1.159,0.672,1.979,1.64,2.454,2.903  c0.513,1.614,1.206,11.708,2.086,30.279c-0.002,0.026-0.002,0.053,0,0.08c0.025,0.596,0.26,1.098,0.706,1.507  c0.445,0.415,0.97,0.612,1.571,0.594c0.604-0.021,1.119-0.25,1.539-0.69c0.418-0.436,0.62-0.956,0.61-1.556c0-0.027,0-0.053,0-0.08  c-0.235-14.926-0.374-22.784-0.418-23.576v-0.032c-0.067-0.95,0.198-1.784,0.801-2.502l0.017-0.016  c0.637-0.724,1.429-1.12,2.375-1.187c0.944-0.065,1.773,0.219,2.486,0.85c0.709,0.632,1.105,1.429,1.186,2.389  c0.105,1.502,0.182,3.005,0.226,4.507c0.019,1.065,0.031,2.161,0.031,3.288c-0.009,0.104-0.009,0.212,0,0.321  c-0.007,5.433-0.387,11.67-1.138,18.715c-0.065,0.605,0.096,1.145,0.48,1.621c0.381,0.478,0.873,0.751,1.475,0.818  c0.604,0.064,1.145-0.096,1.62-0.481c0.477-0.381,0.751-0.873,0.817-1.476c0.74-6.907,1.13-13.061,1.171-18.459  c0.015-0.009,0.031-0.02,0.049-0.033c0.672-0.469,1.442-0.628,2.31-0.481H69.1c0.918,0.151,1.677,0.601,2.277,1.348  c0.563,0.702,0.814,1.477,0.754,2.326C71.46,35.342,70.027,42.104,67.834,48.659z"/></symbol><symbol viewBox="0 0 100 125" id="shape-reset"><title>reset</title><path d="M32.4,84.6c0.3,1.7,0,3-0.8,3.8c-0.8,0.8-2.2,1-3.8,0.6L8.3,83.3c-3.3-0.9-3.9-3.6-1.4-5.9l5.3-4.9  c-0.1-0.1-0.1-0.2-0.2-0.3C1.2,54,5,31.3,19.8,17.6c2.2-2.1,4.7-3.9,7.4-5.6c6.7-4,14-6,21.3-6.1v6.6c-6.1,0.2-12.3,1.9-17.9,5.2  c-2.3,1.4-4.4,3-6.3,4.7C11.9,33.9,8.6,52.7,17.1,67.9l5.4-5c2.5-2.3,5.1-1.5,5.8,1.8L32.4,84.6z M71.8,35.3  c0.7,3.3,3.3,4.1,5.8,1.8l5.4-5c8.5,15.2,5.2,34-7.1,45.5c-1.9,1.8-4,3.3-6.3,4.7c-5.6,3.4-11.8,5-17.9,5.2l0,6.6  c7.3-0.2,14.6-2.2,21.3-6.1c2.7-1.6,5.2-3.5,7.4-5.6C95.1,68.7,98.8,46,88,27.9c-0.1-0.1-0.1-0.2-0.2-0.3l5.3-4.9  c2.5-2.3,1.9-5-1.4-5.9l-19.5-5.6c-1.6-0.5-3-0.2-3.8,0.6c-0.8,0.8-1.2,2.1-0.8,3.8L71.8,35.3z"/> </symbol><symbol viewBox="0 0 90 112.5" id="shape-rock"><title>rock</title><path d="M57.615,75.265c2.003-1.734,2.992-3.816,2.967-6.243c0-0.064,0-0.128,0-0.192c2.535-0.347,4.866-1.284,6.996-2.813  l0.02-0.02c3.251-2.404,4.844-5.301,4.778-8.69c-0.003-0.811-0.092-1.602-0.27-2.371c0.296-0.192,0.611-0.398,0.943-0.615  c0.039-0.035,0.078-0.066,0.116-0.097c2.146-1.501,3.22-3.903,3.218-7.208c0.076-1.843-0.572-3.719-1.945-5.626  c0.655-0.378,1.284-0.795,1.888-1.252c0.313-0.22,0.673-0.503,1.079-0.848c0.148-0.128,0.283-0.27,0.405-0.425  c0.028-0.038,0.061-0.083,0.097-0.135c3.188-2.917,4.749-5.816,4.682-8.689c0.167-2.975-1.368-5.859-4.605-8.654l-0.02-0.018  c-5.298-4.744-12.023-5.682-20.176-2.813c-0.181-0.197-0.367-0.396-0.559-0.598v0.02c-4.146-4.325-8.707-6.465-13.682-6.418  c-3.513-0.095-7.509,1.677-11.986,5.319l-0.02,0.02c-2.653,2.049-4.875,5.221-6.667,9.519c-1.081-0.577-2.166-0.84-3.257-0.79  c-3.985-0.157-7.171,2.199-9.559,7.073l0.02-0.02c-1.679,3.345-2.771,7.026-3.275,11.042v0.018  c-0.488,4.083-0.039,8.194,1.349,12.333l0.02,0.02c1.444,4.51,4.92,7.007,10.425,7.496c0.563,1.105,1.296,2.262,2.197,3.469  l0.019,0.02c3.102,4.425,8.317,6.025,15.647,4.798c0.537,0.611,1.154,1.228,1.851,1.851v0.02c3.059,2.744,6.238,4.073,9.539,3.989  h0.038c3.379-0.066,5.942-0.876,7.689-2.429C57.587,75.289,57.601,75.277,57.615,75.265z M50.543,54.608  c0.038,0.022,0.076,0.048,0.115,0.077c0.258,0.153,0.515,0.309,0.771,0.462c1.92,1.156,3.943,1.972,6.069,2.447  c1.55,0.349,3.143,0.522,4.779,0.52c1.664-0.001,3.257-0.226,4.779-0.674c-0.11,1.635-0.978,3.055-2.602,4.259l-0.02,0.02  c-1.819,1.299-3.861,1.948-6.128,1.946c-2.688-0.001-5.194-0.709-7.516-2.119l0.02,0.018c-2.361-1.469-3.575-3.363-3.642-5.685  c-0.001-0.931,0.294-1.624,0.886-2.08h0.039c0.259-0.166,0.548-0.296,0.867-0.386C49.443,53.824,49.971,54.223,50.543,54.608z   M57.942,43.239c0.107,0.032,0.21,0.057,0.309,0.077c0.282,0.051,0.565,0.102,0.848,0.153l-0.135-0.038  c2.104,0.501,4.225,0.681,6.359,0.539h0.019c1.278-0.074,2.557-0.259,3.836-0.559c1.166,1.257,1.795,2.458,1.889,3.603  c-0.002,1.256-0.329,2.212-0.983,2.872l-0.059,0.058c-0.02,0.012-0.038,0.025-0.058,0.039c-0.357,0.23-0.691,0.456-1.002,0.675  h-0.019c-0.353,0.25-0.681,0.476-0.983,0.674c-0.031,0.016-0.063,0.035-0.096,0.058c-0.151,0.059-0.299,0.136-0.443,0.231  c-0.104,0.032-0.207,0.069-0.309,0.115c-1.498,0.709-3.11,1.063-4.837,1.06c-1.24-0.002-2.448-0.137-3.623-0.403  c-1.572-0.348-3.069-0.945-4.49-1.793c-0.256-0.154-0.513-0.309-0.771-0.463c-0.684-0.479-1.262-0.993-1.734-1.541v0.02  c-0.962-1.145-1.443-2.448-1.445-3.913c0.001-0.989,0.335-1.721,1.003-2.196v-0.02c0.86-0.478,1.979-0.715,3.353-0.712  C55.538,42.354,56.662,42.841,57.942,43.239z M74.477,25.395l0.019,0.02c1.763,1.518,2.688,3.034,2.775,4.546  c-0.143,1.585-1.164,3.235-3.064,4.953c-0.087,0.084-0.17,0.175-0.25,0.27c-0.068,0.083-0.133,0.16-0.192,0.232  c-0.176,0.142-0.336,0.263-0.481,0.366c-0.032,0.027-0.064,0.053-0.097,0.077c-1.003,0.771-2.114,1.388-3.334,1.851  c-0.403,0.117-0.814,0.233-1.233,0.346c-1.201,0.333-2.402,0.531-3.604,0.598h-0.019c-1.611,0.114-3.211-0.015-4.799-0.386  c-0.045-0.013-0.091-0.025-0.135-0.038c-0.232-0.043-0.464-0.087-0.694-0.135c-0.23-0.074-0.456-0.15-0.674-0.232  c0.886-0.488,1.656-1.162,2.312-2.023c0.011-0.02,0.023-0.039,0.04-0.057c0.854-1.138,1.407-2.507,1.656-4.104  c0.529,0.22,1.3,0.554,2.313,1.001c0.678,0.301,1.358,0.32,2.043,0.059c0.68-0.267,1.168-0.735,1.464-1.408  c0.302-0.676,0.321-1.356,0.059-2.043c-0.268-0.679-0.736-1.167-1.407-1.463c-2.349-1.043-3.769-1.596-4.259-1.658  c-0.083-0.01-0.167-0.016-0.25-0.02c-0.1-0.009-0.196-0.015-0.289-0.02c-0.014-0.046-0.026-0.092-0.039-0.134  c-0.006-0.03-0.013-0.062-0.02-0.096c-0.284-0.918-0.689-1.843-1.214-2.776C66.429,21.637,70.886,22.394,74.477,25.395z   M27.072,63.896l-0.02-0.02c-2.014-2.718-2.707-4.901-2.082-6.552c0.345-0.65,0.41-1.325,0.193-2.023  c-0.214-0.703-0.644-1.229-1.291-1.579c-0.648-0.345-1.323-0.409-2.023-0.192c-0.702,0.215-1.229,0.646-1.58,1.29  c-0.598,0.962-0.945,2.002-1.04,3.122c-1.983-0.589-3.332-1.782-4.047-3.585l0.019,0.02c-1.128-3.356-1.5-6.689-1.118-10v-0.02  c0.423-3.377,1.336-6.473,2.737-9.289l0.019-0.018c1.264-2.583,2.856-3.952,4.779-4.105c0.47,0.063,0.951,0.281,1.445,0.655  c-0.39,1.352-0.75,2.777-1.079,4.278c-0.154,0.715-0.032,1.384,0.366,2.004c0.394,0.624,0.946,1.015,1.657,1.176  c0.716,0.155,1.384,0.033,2.004-0.366c0.622-0.395,1.014-0.945,1.175-1.658c1.704-7.783,4.267-13.114,7.689-15.994l0.02-0.02  c3.274-2.666,6.159-4.048,8.652-4.143c3.556,0.054,6.831,1.647,9.828,4.78c0.526,0.546,1.003,1.093,1.426,1.638  c0.013,0.018,0.025,0.038,0.038,0.057c0.054,0.075,0.111,0.146,0.174,0.212c1.057,1.347,1.795,2.665,2.216,3.95l-0.02-0.096  c0.126,0.445,0.223,0.888,0.289,1.329c-0.002,0.035-0.002,0.066,0,0.097c0.022,0.241,0.036,0.491,0.039,0.751  c-0.001,1.236-0.271,2.258-0.81,3.063l0.038-0.038c-0.464,0.61-1.119,0.899-1.965,0.867c-0.387,0.005-0.76-0.041-1.118-0.135  l-0.058-0.02h-0.02c-0.794-0.27-1.539-0.759-2.235-1.463h-0.019c-1.712-1.695-2.958-2.91-3.739-3.644  c-0.108-0.253-0.263-0.489-0.462-0.712c-0.456-0.506-1.021-0.795-1.696-0.867c-0.678-0.075-1.294,0.084-1.85,0.482  c-0.551,0.403-0.898,0.937-1.041,1.599c-0.278,0.95-0.13,2.24,0.443,3.874l0.02,0.039c0.283,0.772,0.443,1.337,0.482,1.695  c-0.051,1.656-0.73,3.371-2.043,5.146l-0.02,0.018c-1.237,1.624-2.516,2.57-3.835,2.833c-0.723,0.097-1.307,0.438-1.754,1.021  c-0.451,0.584-0.632,1.239-0.539,1.966c0.097,0.723,0.437,1.307,1.021,1.754c0.584,0.45,1.239,0.631,1.967,0.539  c2.344-0.22,4.559-1.549,6.648-3.988c-0.039,0.348-0.059,0.707-0.059,1.078c0,1.528,0.275,2.96,0.829,4.298  c-0.19,0.108-0.376,0.225-0.56,0.347c-2.209,1.345-3.313,3.521-3.314,6.532c-0.004,0.294,0.002,0.583,0.02,0.867  c-1.691,0.229-3.13,1.089-4.316,2.583l-0.019,0.019c-1.259,1.515-1.888,3.428-1.889,5.743c-0.009,0.578,0.049,1.156,0.173,1.734  C31.877,67.134,28.96,66.157,27.072,63.896z M49.772,72.414c-2.03-0.044-4.002-0.925-5.917-2.641v0.02  c-0.846-0.772-1.52-1.531-2.023-2.273l-0.038-0.059c-0.033-0.049-0.065-0.094-0.097-0.135c-0.465-0.751-0.709-1.496-0.732-2.235  c-0.001-0.963,0.236-1.768,0.714-2.408l0.019-0.02c0.324-0.411,0.723-0.63,1.195-0.655c0.12-0.002,0.217-0.002,0.289,0  c0.043,0.017,0.088,0.036,0.135,0.057c0.151,0.077,0.306,0.141,0.463,0.193c1.007,1.421,2.414,2.693,4.22,3.816l0.02,0.018  c2.225,1.351,4.576,2.231,7.053,2.641c0.061,0.091,0.132,0.18,0.212,0.27l-0.019,0.02c-0.025,0.845-0.385,1.576-1.08,2.196  c-1.02,0.755-2.478,1.153-4.374,1.196H49.772z"/></symbol><symbol viewBox="0 0 90 112.5" id="shape-scissors"><title>scissors</title><path d="M5.991,53.204c1.322,4.128,4.646,6.277,9.975,6.446c0.168,0.006,0.332-0.005,0.49-0.033c0.457,0.693,0.998,1.36,1.625,2.003  c2.34,2.421,5.09,3.624,8.252,3.608c0.32,0.007,0.83-0.048,1.525-0.163c0.352-0.057,0.576-0.09,0.674-0.099c0.063,0,0.121,0,0.18,0  c0.564,1.052,1.357,2.106,2.379,3.166l0.016,0.016c2.459,2.563,5.133,3.82,8.023,3.773c2.523-0.011,4.732-0.715,6.627-2.116  c2.18-1.603,3.23-3.467,3.151-5.594c0-0.036,0-0.075,0-0.115c2.76-0.092,5.275-0.83,7.547-2.214l0.017-0.018  c3.037-1.905,4.509-4.229,4.413-6.972c0.018-0.947-0.135-1.859-0.46-2.741c2.698,0.506,5.454,0.942,8.269,1.313  c5.816,0.763,9.765,0.981,11.845,0.656c0.011-0.006,0.022-0.012,0.033-0.017c2.698-0.418,4.771-1.922,6.218-4.511l-0.017,0.016  c1.526-2.55,1.494-5.431-0.099-8.646c-1.287-3.163-5.454-5.006-12.501-5.528c-0.082-0.007-0.165-0.012-0.246-0.017  c4.924-1.519,7.921-3.429,8.99-5.725l0.017-0.017c1.72-3.199,1.954-5.775,0.706-7.726c-1.017-1.889-2.542-3.189-4.577-3.905h0.032  c-1.733-0.646-3.706-0.93-5.923-0.853h-0.033c-2.013,0.018-6.038,1.063-12.073,3.132c-4.726,1.618-8.647,3.193-11.764,4.726  c-0.777-1.395-1.861-2.815-3.248-4.265c-3.529-3.685-7.412-5.504-11.648-5.464c-2.996-0.079-6.402,1.426-10.221,4.512  c-2.262,1.756-4.152,4.462-5.678,8.12c-0.92-0.479-1.844-0.698-2.771-0.656c-3.387-0.13-6.111,1.876-8.17,6.021  c-1.4,2.843-2.314,5.972-2.74,9.385C4.388,46.191,4.776,49.691,5.991,53.204z M39.179,61.914h0.018  c1.533,0.803,3.141,1.387,4.822,1.757c0.092,0.188,0.211,0.37,0.361,0.541c-0.078,0.715-0.516,1.365-1.313,1.953  c-1.125,0.829-2.436,1.238-3.938,1.23c-1.697-0.047-3.283-0.84-4.758-2.38L34.356,65c-1.363-1.413-2.08-2.791-2.15-4.136  c0-0.806,0.201-1.489,0.607-2.051l0.016-0.016c0.277-0.334,0.615-0.508,1.018-0.524c0.188-0.001,0.313-0.001,0.377,0  c0.02,0.004,0.035,0.01,0.051,0.017h-0.066c0.256,0.126,0.514,0.203,0.771,0.229C35.927,59.803,37.327,60.934,39.179,61.914z   M11.634,35.322c1.092-2.204,2.459-3.369,4.102-3.496c0.4,0.054,0.811,0.24,1.23,0.558c-0.332,1.15-0.639,2.365-0.92,3.643  c-0.131,0.608-0.027,1.177,0.313,1.706c0.336,0.53,0.807,0.864,1.41,1.001c0.609,0.132,1.18,0.028,1.707-0.311  c0.529-0.336,0.863-0.807,1.002-1.412c1.453-6.635,3.641-11.19,6.561-13.665c2.789-2.252,5.244-3.417,7.367-3.496  c3.025,0.046,5.814,1.402,8.367,4.069v-0.017c1.619,1.693,2.707,3.329,3.264,4.905c0.006,0.017,0.012,0.033,0.018,0.049  c0.17,0.608,0.26,1.215,0.262,1.821c0,1.042-0.225,1.894-0.672,2.56c-0.393,0.508-0.947,0.749-1.658,0.721  c-1.072-0.027-2.051-0.476-2.936-1.344c-1.441-1.428-2.496-2.456-3.166-3.085c-0.09-0.232-0.229-0.452-0.41-0.657  c-0.389-0.431-0.871-0.676-1.443-0.738c-0.578-0.064-1.104,0.073-1.576,0.41c-0.469,0.344-0.764,0.798-0.885,1.362  c-0.24,0.799-0.119,1.904,0.359,3.313c0.014,0.015,0.023,0.032,0.033,0.05c0.242,0.658,0.379,1.139,0.41,1.443  c-0.041,1.41-0.631,2.87-1.771,4.381c-1.049,1.382-2.143,2.19-3.281,2.428c-0.611,0.09-1.105,0.385-1.477,0.886  c-0.381,0.505-0.527,1.069-0.443,1.69c0.09,0.611,0.385,1.104,0.887,1.477c0.506,0.379,1.068,0.527,1.689,0.442  c2.23-0.243,4.309-1.644,6.234-4.2c1.34-1.771,2.182-3.511,2.525-5.217c1.596,1.281,3.346,1.91,5.25,1.887  c2.256-0.022,4.017-0.864,5.283-2.526l0.018-0.033c1.038-1.346,1.559-3.097,1.559-5.25c0.001-0.425-0.021-0.852-0.065-1.279  c3.044-1.542,6.965-3.133,11.763-4.774c5.393-1.855,8.969-2.823,10.729-2.905h0.032c1.578-0.052,2.983,0.145,4.217,0.591h0.033  c0.938,0.334,1.645,0.937,2.115,1.805c0.287,0.842,0.04,1.984-0.737,3.429l0.017-0.015c-1.169,1.757-4.439,3.255-9.811,4.494  l0.017-0.016c-6.342,1.437-12.319,3.027-17.933,4.774c-0.559,0.176-0.985,0.521-1.279,1.033c-0.3,0.512-0.387,1.054-0.263,1.624  c0.134,0.572,0.445,1.025,0.937,1.363c0.481,0.341,1.012,0.472,1.591,0.393c8.668-1.22,15.882-1.629,21.639-1.23  c4.776,0.353,7.696,1.354,8.762,3.002c0.813,1.644,0.891,3.112,0.229,4.414l-0.017,0.016c-0.696,1.262-1.687,2.011-2.969,2.248  l0.032-0.018c-1.856,0.244-5.39,0.025-10.598-0.655c-5.378-0.707-10.54-1.657-15.486-2.854c-0.46-0.151-0.941-0.266-1.445-0.345  c-0.041-0.007-0.078-0.012-0.113-0.017c-0.202-0.021-0.416-0.044-0.641-0.065c-0.62-0.065-1.174,0.099-1.657,0.492  c-0.483,0.396-0.758,0.906-0.819,1.526c-0.065,0.619,0.099,1.172,0.491,1.655c0.398,0.485,0.907,0.758,1.526,0.821  c0.171,0.018,0.335,0.035,0.492,0.05c0.038,0.007,0.076,0.012,0.115,0.017c0.182,0.035,0.362,0.078,0.541,0.131  c0.05,0.022,0.104,0.044,0.164,0.065c0.81,0.281,1.58,0.747,2.313,1.395l0.017,0.017c1.005,0.924,1.529,1.936,1.575,3.035  c-0.095,1.193-0.854,2.237-2.281,3.134l0.018-0.017c-1.725,1.055-3.649,1.579-5.775,1.575c-2.531,0.005-4.873-0.553-7.021-1.674  h0.016c-2.066-1.093-3.154-2.472-3.264-4.134c-0.018-0.626,0.236-1.08,0.754-1.363l-0.016,0.018c0.76-0.372,1.75-0.558,2.969-0.558  c0.422,0.051,1.309,0.335,2.658,0.853c0.016,0.006,0.031,0.013,0.049,0.016c1.311,0.539,2.104,0.894,2.379,1.066  c0.475,0.413,1.021,0.599,1.641,0.558c0.62-0.047,1.134-0.31,1.542-0.786c0.414-0.474,0.599-1.021,0.559-1.641  c-0.05-0.619-0.313-1.133-0.788-1.542c-0.376-0.394-1.602-1.017-3.676-1.87c-0.018-0.005-0.033-0.01-0.049-0.017  c-2.168-0.831-3.605-1.218-4.314-1.165c-2.105-0.002-3.807,0.359-5.102,1.083l-0.018,0.017c-2.055,1.112-3.092,2.879-3.117,5.298  c-1.674,0.073-3.08,0.813-4.215,2.215l-0.018,0.018c-1.006,1.238-1.541,2.753-1.607,4.543c-0.162,0.021-0.348,0.049-0.559,0.082  h-0.016c-0.354,0.06-0.611,0.093-0.771,0.099c-1.912-0.015-3.58-0.759-5.004-2.23c-1.375-1.408-2.113-3.005-2.213-4.79  c-0.031-0.626-0.277-1.149-0.74-1.575c-0.461-0.424-1.004-0.62-1.623-0.591c-0.625,0.029-1.15,0.275-1.574,0.737  s-0.621,1.003-0.592,1.624c0.016,0.379,0.049,0.751,0.098,1.117c-2.232-0.364-3.709-1.453-4.428-3.265  c-0.975-2.833-1.285-5.653-0.938-8.465C9.683,40.375,10.454,37.728,11.634,35.322z"/></symbol></svg>